<?xml version="1.0" encoding="UTF-8"?>


<svg xmlns="http://www.w3.org/2000/svg" width="169" height="109" viewBox="0 0 169 109">
<g style="fill:none;stroke:#000000;stroke-width:3;stroke-linecap:round;stroke-linejoin:round;">
<g>
	<path d="M38.75,25.25c1.25,1.5,2.24,4.03,1.62,6.62c-2.88,12.13-6.29,29.65-4.25,42.38c2,12.5,1.75-0.75,5.62-6.25"/>
	<path d="M69.37,18.75c2.25,2.12,2.88,4.12,2.88,6.5c0,2.38,0,26.38,0,35.75c0,16.5-5,25.75-12.62,33.12"/>
</g>
</g>
<g style="font-size:8;fill:#808080">
	<text transform="matrix(1 0 0 1 30.37 25)">1</text>
	<text transform="matrix(1 0 0 1 61.62 17)">2</text>
</g>
    <g style="fill:none;stroke:#000000;stroke-width:3;stroke-linecap:round;stroke-linejoin:round;">
        <g>
            <path d="M107.74,40.79c1.1,1.2,1.61,3.3,1.2,5c-2.3,9.4-3.2,17.79-1.7,27.99c2.22,15.08,0.9,3.1,2.6-1.2c7.19-18.19,21.79-27.59,35.49-27.59c13.5,0,17.49,9.1,17.49,16.2c0,21.89-24.69,23.69-34.39,13.4"/>
            <path d="M137.63,33.89c2.1,1.4,2.53,2.5,2.8,5.7c0.7,8.4,1.12,14.97,1.3,23.49c0.4,19.19-5,25.59-9.9,31.39"/>
        </g>
    </g>
    <g style="font-size:8;fill:#808080">
        <text transform="matrix(1 0 0 1 99.42 39.63)">1</text>
        <text transform="matrix(1 0 0 1 128.8 32.5)">2</text>
    </g>
</svg>